<?xml version="1.0" encoding="utf-8"?>
<!-- Generator: Adobe Illustrator 24.2.3, SVG Export Plug-In . SVG Version: 6.00 Build 0)  -->
<svg version="1.1" id="Calque_1" xmlns="http://www.w3.org/2000/svg" xmlns:xlink="http://www.w3.org/1999/xlink" x="0px" y="0px"
	 viewBox="0 0 25.1 27.9" style="enable-background:new 0 0 25.1 27.9;" xml:space="preserve">
<style type="text/css">
	.st0{fill:#2E047E;stroke:#2E047E;}
</style>
<g id="Groupe_473" transform="translate(-27.088 0.525)">
	<g id="Groupe_469" transform="translate(27.617 0)">
		<g id="Groupe_468" transform="translate(0 0)">
			<path id="Tracé_40984" class="st0" d="M19.3,0.4C16.9-0.3,14.2,0,12,1.3C9.8,0,7.1-0.3,4.7,0.4C0.3,1.8-1.7,8.2,1.8,13.3
				c1.3,1.9,2,4,2.1,6.3C4,21.3,4.4,22.9,5,24.4c0.5,1.2,1.2,2.5,2.2,2.5h0c0.8,0,1.5-0.9,2.2-2.7c0.3-1,0.6-2.1,0.8-3.1
				c0.4-1.9,0.8-3.9,1.8-3.9h0c1,0,1.4,2,1.8,3.9c0.2,1.1,0.4,2.1,0.8,3.1c0.7,1.8,1.4,2.7,2.2,2.7h0c1,0,1.7-1.4,2.2-2.5
				c0.6-1.5,0.9-3,1.1-4.6c0.1-2.3,0.9-4.5,2.1-6.4C25.8,8.1,23.6,1.8,19.3,0.4z M21.4,12.7c-1.4,2-2.2,4.4-2.3,6.9
				c-0.1,1.5-0.5,3-1,4.4c-0.8,1.8-1.2,1.9-1.3,1.9l0,0c0,0-0.5,0-1.2-2c-0.3-1-0.6-2-0.7-3c-0.2-1.1-0.4-2.1-0.8-3.1
				c-0.5-1.1-1.1-1.7-2-1.7h0c-0.9,0-1.5,0.6-2,1.7c-0.4,1-0.6,2.1-0.8,3.1c-0.2,1-0.4,2-0.7,3c-0.7,2-1.2,2-1.2,2
				c0,0-0.5,0-1.3-1.9c-0.6-1.4-0.9-2.9-1-4.4c-0.1-2.4-0.9-4.8-2.3-6.8C-0.5,8.1,1.4,2.6,5,1.4c2.3-0.7,4.7-0.4,6.7,0.9
				c0.2,0.1,0.4,0.1,0.6,0c2-1.3,4.4-1.6,6.7-0.9C22.7,2.6,24.5,8.2,21.4,12.7L21.4,12.7z"/>
		</g>
	</g>
	<g id="Groupe_471" transform="translate(46.299 3.856)">
		<g id="Groupe_470">
			<path id="Tracé_40985" class="st0" d="M1.6,1.6C1.5,1.1,1.2,0.6,1,0.2C0.8,0,0.5-0.1,0.2,0.1C0,0.2-0.1,0.5,0.1,0.8c0,0,0,0,0,0
				c0.2,0.3,0.4,0.7,0.5,1.1C1.2,3.5,1,5.3,0.3,6.8C0.1,7,0.2,7.4,0.5,7.5s0.6,0,0.7-0.2c0,0,0,0,0,0C2.1,5.5,2.2,3.5,1.6,1.6z"/>
		</g>
	</g>
</g>
</svg>
